<svg xmlns="http://www.w3.org/2000/svg" width="1280" height="800" viewBox="0 0 1280 800">
  <defs>
    <linearGradient id="header-grad" x1="0%" y1="0%" x2="100%" y2="0%">
      <stop offset="0%" style="stop-color:#d946ef;stop-opacity:1" />
      <stop offset="100%" style="stop-color:#06b6d4;stop-opacity:1" />
    </linearGradient>
    <linearGradient id="cyan-glow" x1="0%" y1="0%" x2="100%" y2="100%">
      <stop offset="0%" style="stop-color:#06b6d4;stop-opacity:0.15" />
      <stop offset="100%" style="stop-color:#020617;stop-opacity:1" />
    </linearGradient>
    <filter id="glow-cyan">
      <feGaussianBlur stdDeviation="3" result="coloredBlur"/>
      <feMerge><feMergeNode in="coloredBlur"/><feMergeNode in="SourceGraphic"/></feMerge>
    </filter>
    <filter id="glow-fuchsia">
      <feGaussianBlur stdDeviation="2" result="coloredBlur"/>
      <feMerge><feMergeNode in="coloredBlur"/><feMergeNode in="SourceGraphic"/></feMerge>
    </filter>
    <pattern id="grid-pattern" x="0" y="0" width="40" height="40" patternUnits="userSpaceOnUse">
      <path d="M 40 0 L 0 0 0 40" fill="none" stroke="#0f172a" stroke-width="0.5"/>
    </pattern>
  </defs>

  <!-- Background -->
  <rect width="1280" height="800" fill="#020617"/>
  <rect width="1280" height="800" fill="url(#grid-pattern)" opacity="0.4"/>

  <!-- Ambient radial glow -->
  <radialGradient id="ambient" cx="50%" cy="30%" r="60%">
    <stop offset="0%" style="stop-color:#06b6d4;stop-opacity:0.03"/>
    <stop offset="100%" style="stop-color:#020617;stop-opacity:0"/>
  </radialGradient>
  <rect width="1280" height="800" fill="url(#ambient)"/>

  <!-- Matrix rain dots (decorative) -->
  <g opacity="0.08" fill="#06b6d4" font-family="monospace" font-size="10">
    <text x="20" y="60">1</text><text x="20" y="75">0</text><text x="20" y="90">1</text>
    <text x="1250" y="100">0</text><text x="1250" y="115">1</text>
    <text x="640" y="750">1</text><text x="655" y="765">0</text>
  </g>

  <!-- ========== HEADER ========== -->
  <rect x="0" y="0" width="1280" height="56" fill="#020617" opacity="0.95"/>

  <!-- Brand: OMNI-GRID (gradient text simulated) -->
  <text x="24" y="36" font-family="'Share Tech Mono', monospace" font-size="26" font-weight="bold" fill="url(#header-grad)" filter="url(#glow-fuchsia)">OMNI-GRID</text>

  <!-- LAUNCHER button -->
  <rect x="176" y="18" width="100" height="24" rx="3" fill="#4a044e" opacity="0.6" stroke="#d946ef" stroke-width="0.8" stroke-opacity="0.6"/>
  <text x="226" y="34" text-anchor="middle" font-family="'Share Tech Mono', monospace" font-size="9" fill="#e879f9" font-weight="bold" letter-spacing="2">[ LAUNCHER ]</text>

  <!-- Right-side control buttons -->
  <!-- GHOST button -->
  <rect x="900" y="16" width="72" height="24" rx="2" fill="#0c4a6e" opacity="0.5" stroke="#06b6d4" stroke-width="0.7" stroke-opacity="0.5"/>
  <text x="936" y="32" text-anchor="middle" font-family="'Share Tech Mono', monospace" font-size="8" fill="#67e8f9" letter-spacing="1">GHOST</text>

  <!-- AUTOFIT button -->
  <rect x="982" y="16" width="90" height="24" rx="2" fill="#1e1b4b" opacity="0.5" stroke="#818cf8" stroke-width="0.7" stroke-opacity="0.5"/>
  <text x="1027" y="32" text-anchor="middle" font-family="'Share Tech Mono', monospace" font-size="8" fill="#a5b4fc" letter-spacing="1">AUTOFIT: OFF</text>

  <!-- LOCK button -->
  <rect x="1082" y="16" width="58" height="24" rx="2" fill="#0f172a" opacity="0.8" stroke="#334155" stroke-width="0.7"/>
  <text x="1111" y="32" text-anchor="middle" font-family="'Share Tech Mono', monospace" font-size="8" fill="#94a3b8" letter-spacing="1">UNLOCK</text>

  <!-- SAVE button -->
  <rect x="1150" y="16" width="46" height="24" rx="2" fill="#0f172a" opacity="0.8" stroke="#334155" stroke-width="0.7"/>
  <text x="1173" y="32" text-anchor="middle" font-family="'Share Tech Mono', monospace" font-size="8" fill="#94a3b8" letter-spacing="1">SAVE</text>

  <!-- LOAD button -->
  <rect x="1206" y="16" width="46" height="24" rx="2" fill="#0f172a" opacity="0.8" stroke="#334155" stroke-width="0.7"/>
  <text x="1229" y="32" text-anchor="middle" font-family="'Share Tech Mono', monospace" font-size="8" fill="#94a3b8" letter-spacing="1">LOAD</text>

  <!-- ========== GRID WIDGETS ========== -->

  <!-- Row 1: SYSTEM CORE | HELP DESK | UNIVERSAL TRANSFORMER -->

  <!-- SYSTEM CORE widget -->
  <rect x="16" y="72" width="280" height="180" rx="4" fill="#0f172a" stroke="#06b6d4" stroke-width="1" stroke-opacity="0.5"/>
  <rect x="16" y="72" width="280" height="22" rx="4" fill="#06b6d4" fill-opacity="0.12"/>
  <line x1="16" y1="94" x2="296" y2="94" stroke="#06b6d4" stroke-width="0.5" stroke-opacity="0.4"/>
  <text x="28" y="87" font-family="'Share Tech Mono', monospace" font-size="9" fill="#67e8f9" letter-spacing="2" font-weight="bold">◈ SYSTEM CORE</text>
  <!-- system content -->
  <text x="28" y="112" font-family="'Share Tech Mono', monospace" font-size="8" fill="#475569">// STATUS MATRIX</text>
  <rect x="28" y="118" width="120" height="6" rx="2" fill="#06b6d4" fill-opacity="0.2"/>
  <rect x="28" y="118" width="95" height="6" rx="2" fill="#06b6d4" fill-opacity="0.6"/>
  <text x="155" y="125" font-family="monospace" font-size="7" fill="#67e8f9">78%</text>
  <text x="28" y="140" font-family="monospace" font-size="7" fill="#64748b">CPU LOAD</text>
  <rect x="28" y="145" width="120" height="6" rx="2" fill="#d946ef" fill-opacity="0.2"/>
  <rect x="28" y="145" width="45" height="6" rx="2" fill="#d946ef" fill-opacity="0.5"/>
  <text x="155" y="152" font-family="monospace" font-size="7" fill="#e879f9">37%</text>
  <text x="28" y="167" font-family="monospace" font-size="7" fill="#64748b">MEM ALLOC</text>
  <rect x="28" y="172" width="120" height="6" rx="2" fill="#10b981" fill-opacity="0.2"/>
  <rect x="28" y="172" width="80" height="6" rx="2" fill="#10b981" fill-opacity="0.5"/>
  <text x="155" y="179" font-family="monospace" font-size="7" fill="#34d399">67%</text>
  <text x="28" y="194" font-family="monospace" font-size="7" fill="#64748b">DISK I/O</text>
  <text x="28" y="220" font-family="monospace" font-size="8" fill="#1e40af">[ LOCAL-FIRST ] [ OFFLINE-CAPABLE ]</text>
  <text x="28" y="234" font-family="monospace" font-size="7" fill="#334155">v2.0.0-alpha | BUILD: 2025.03</text>

  <!-- HELP DESK widget -->
  <rect x="308" y="72" width="280" height="180" rx="4" fill="#0f172a" stroke="#d946ef" stroke-width="1" stroke-opacity="0.4"/>
  <rect x="308" y="72" width="280" height="22" rx="4" fill="#d946ef" fill-opacity="0.08"/>
  <line x1="308" y1="94" x2="588" y2="94" stroke="#d946ef" stroke-width="0.5" stroke-opacity="0.4"/>
  <text x="320" y="87" font-family="'Share Tech Mono', monospace" font-size="9" fill="#e879f9" letter-spacing="2" font-weight="bold">◈ HELP DESK</text>
  <text x="320" y="112" font-family="monospace" font-size="8" fill="#475569">// KNOWLEDGE BASE</text>
  <rect x="320" y="120" width="256" height="18" rx="2" fill="#1e293b"/>
  <text x="330" y="132" font-family="monospace" font-size="7" fill="#94a3b8">🔍 Search documentation...</text>
  <text x="320" y="155" font-family="monospace" font-size="8" fill="#7c3aed">▶ Widget Development Guide</text>
  <text x="320" y="170" font-family="monospace" font-size="8" fill="#7c3aed">▶ API Reference</text>
  <text x="320" y="185" font-family="monospace" font-size="8" fill="#7c3aed">▶ Architecture Overview</text>
  <text x="320" y="200" font-family="monospace" font-size="8" fill="#7c3aed">▶ Keyboard Shortcuts</text>
  <text x="320" y="230" font-family="monospace" font-size="7" fill="#334155">// Q&amp;A | WIKI | HOW-TO GUIDES</text>

  <!-- UNIVERSAL TRANSFORMER widget -->
  <rect x="600" y="72" width="280" height="220" rx="4" fill="#0f172a" stroke="#06b6d4" stroke-width="1" stroke-opacity="0.4"/>
  <rect x="600" y="72" width="280" height="22" rx="4" fill="#06b6d4" fill-opacity="0.08"/>
  <line x1="600" y1="94" x2="880" y2="94" stroke="#06b6d4" stroke-width="0.5" stroke-opacity="0.4"/>
  <text x="612" y="87" font-family="'Share Tech Mono', monospace" font-size="9" fill="#67e8f9" letter-spacing="2" font-weight="bold">◈ UNIVERSAL TRANSFORMER</text>
  <text x="612" y="112" font-family="monospace" font-size="7" fill="#475569">// DATA FORMAT CONVERTER</text>
  <!-- Input area -->
  <rect x="612" y="118" width="256" height="60" rx="2" fill="#0d1b2a" stroke="#1e3a5f" stroke-width="0.5"/>
  <text x="622" y="132" font-family="monospace" font-size="7" fill="#334155">// INPUT (JSON)</text>
  <text x="622" y="145" font-family="monospace" font-size="7" fill="#10b981">{"name": "Omni-Grid",</text>
  <text x="622" y="157" font-family="monospace" font-size="7" fill="#10b981">  "version": "2.0.0"}</text>
  <!-- Output area -->
  <rect x="612" y="186" width="256" height="60" rx="2" fill="#0d1b2a" stroke="#1e3a5f" stroke-width="0.5"/>
  <text x="622" y="200" font-family="monospace" font-size="7" fill="#334155">// OUTPUT (YAML)</text>
  <text x="622" y="213" font-family="monospace" font-size="7" fill="#e879f9">name: Omni-Grid</text>
  <text x="622" y="225" font-family="monospace" font-size="7" fill="#e879f9">version: 2.0.0</text>
  <!-- Format buttons -->
  <rect x="612" y="254" width="36" height="16" rx="2" fill="#0c4a6e" stroke="#06b6d4" stroke-width="0.5"/>
  <text x="630" y="265" text-anchor="middle" font-family="monospace" font-size="6" fill="#67e8f9">JSON</text>
  <rect x="654" y="254" width="36" height="16" rx="2" fill="#1e293b" stroke="#334155" stroke-width="0.5"/>
  <text x="672" y="265" text-anchor="middle" font-family="monospace" font-size="6" fill="#94a3b8">YAML</text>
  <rect x="696" y="254" width="36" height="16" rx="2" fill="#1e293b" stroke="#334155" stroke-width="0.5"/>
  <text x="714" y="265" text-anchor="middle" font-family="monospace" font-size="6" fill="#94a3b8">TOML</text>
  <rect x="738" y="254" width="36" height="16" rx="2" fill="#1e293b" stroke="#334155" stroke-width="0.5"/>
  <text x="756" y="265" text-anchor="middle" font-family="monospace" font-size="6" fill="#94a3b8">CSV</text>
  <rect x="780" y="254" width="36" height="16" rx="2" fill="#1e293b" stroke="#334155" stroke-width="0.5"/>
  <text x="798" y="265" text-anchor="middle" font-family="monospace" font-size="6" fill="#94a3b8">XML</text>

  <!-- Row 2: NEURAL SCRATCHPAD | FOCUS HUD | DEV OPTIC -->

  <!-- NEURAL SCRATCHPAD widget -->
  <rect x="16" y="264" width="280" height="220" rx="4" fill="#0f172a" stroke="#d946ef" stroke-width="1" stroke-opacity="0.5"/>
  <rect x="16" y="264" width="280" height="22" rx="4" fill="#d946ef" fill-opacity="0.1"/>
  <line x1="16" y1="286" x2="296" y2="286" stroke="#d946ef" stroke-width="0.5" stroke-opacity="0.4"/>
  <text x="28" y="279" font-family="'Share Tech Mono', monospace" font-size="9" fill="#e879f9" letter-spacing="2" font-weight="bold">◈ NEURAL SCRATCHPAD</text>
  <!-- AI badge -->
  <rect x="252" y="270" width="32" height="12" rx="6" fill="#7c3aed" opacity="0.8"/>
  <text x="268" y="279" text-anchor="middle" font-family="monospace" font-size="6" fill="#e9d5ff">AI</text>
  <!-- Text area -->
  <rect x="28" y="292" width="256" height="120" rx="2" fill="#060e1a" stroke="#1e293b" stroke-width="0.5"/>
  <text x="38" y="308" font-family="monospace" font-size="7" fill="#e2e8f0">Project Notes - Omni-Grid v2.0</text>
  <text x="38" y="322" font-family="monospace" font-size="7" fill="#64748b">━━━━━━━━━━━━━━━━━━━━━━━━━━━━━</text>
  <text x="38" y="336" font-family="monospace" font-size="7" fill="#94a3b8">• Implement cross-widget drag protocol</text>
  <text x="38" y="350" font-family="monospace" font-size="7" fill="#94a3b8">• AI-powered layout optimization</text>
  <text x="38" y="364" font-family="monospace" font-size="7" fill="#94a3b8">• Add WebSocket support for real-time</text>
  <text x="38" y="378" font-family="monospace" font-size="7" fill="#94a3b8">  data feeds...</text>
  <rect x="38" y="390" width="1" height="12" fill="#d946ef" opacity="0.8"/><!-- cursor -->
  <!-- AI buttons -->
  <rect x="28" y="420" width="52" height="20" rx="2" fill="#4a044e" stroke="#d946ef" stroke-width="0.5" stroke-opacity="0.5"/>
  <text x="54" y="433" text-anchor="middle" font-family="monospace" font-size="7" fill="#e879f9">✦ REFINE</text>
  <rect x="88" y="420" width="52" height="20" rx="2" fill="#1e1b4b" stroke="#818cf8" stroke-width="0.5" stroke-opacity="0.5"/>
  <text x="114" y="433" text-anchor="middle" font-family="monospace" font-size="7" fill="#a5b4fc">▸ EXPAND</text>
  <rect x="148" y="420" width="60" height="20" rx="2" fill="#0c2a2a" stroke="#10b981" stroke-width="0.5" stroke-opacity="0.5"/>
  <text x="178" y="433" text-anchor="middle" font-family="monospace" font-size="7" fill="#34d399">⊟ SUMMARIZE</text>
  <text x="28" y="470" font-family="monospace" font-size="7" fill="#475569">// Cmd+K to trigger AI refine</text>

  <!-- FOCUS HUD widget -->
  <rect x="308" y="264" width="280" height="180" rx="4" fill="#0f172a" stroke="#10b981" stroke-width="1" stroke-opacity="0.5"/>
  <rect x="308" y="264" width="280" height="22" rx="4" fill="#10b981" fill-opacity="0.08"/>
  <line x1="308" y1="286" x2="588" y2="286" stroke="#10b981" stroke-width="0.5" stroke-opacity="0.4"/>
  <text x="320" y="279" font-family="'Share Tech Mono', monospace" font-size="9" fill="#34d399" letter-spacing="2" font-weight="bold">◈ FOCUS HUD</text>
  <!-- Circular timer -->
  <circle cx="448" cy="358" r="55" fill="none" stroke="#1e3a2a" stroke-width="8"/>
  <circle cx="448" cy="358" r="55" fill="none" stroke="#10b981" stroke-width="3" stroke-dasharray="250 100" stroke-linecap="round" transform="rotate(-90, 448, 358)"/>
  <text x="448" y="352" text-anchor="middle" font-family="'Share Tech Mono', monospace" font-size="18" fill="#34d399" font-weight="bold">24:13</text>
  <text x="448" y="367" text-anchor="middle" font-family="monospace" font-size="8" fill="#475569">FOCUS MODE</text>
  <!-- Controls -->
  <rect x="370" y="424" width="36" height="14" rx="7" fill="#10b981" fill-opacity="0.3" stroke="#10b981" stroke-width="0.5"/>
  <text x="388" y="434" text-anchor="middle" font-family="monospace" font-size="7" fill="#34d399">▶ RUN</text>
  <rect x="416" y="424" width="36" height="14" rx="7" fill="#1e293b" stroke="#334155" stroke-width="0.5"/>
  <text x="434" y="434" text-anchor="middle" font-family="monospace" font-size="7" fill="#64748b">◼ STOP</text>
  <rect x="462" y="424" width="42" height="14" rx="7" fill="#1e293b" stroke="#334155" stroke-width="0.5"/>
  <text x="483" y="434" text-anchor="middle" font-family="monospace" font-size="7" fill="#64748b">⟳ RESET</text>

  <!-- DEV OPTIC widget -->
  <rect x="600" y="304" width="280" height="180" rx="4" fill="#0f172a" stroke="#06b6d4" stroke-width="1" stroke-opacity="0.4"/>
  <rect x="600" y="304" width="280" height="22" rx="4" fill="#06b6d4" fill-opacity="0.08"/>
  <line x1="600" y1="326" x2="880" y2="326" stroke="#06b6d4" stroke-width="0.5" stroke-opacity="0.4"/>
  <text x="612" y="319" font-family="'Share Tech Mono', monospace" font-size="9" fill="#67e8f9" letter-spacing="2" font-weight="bold">◈ DEV OPTIC</text>
  <!-- Tab bar -->
  <rect x="612" y="330" width="48" height="16" rx="2" fill="#0c4a6e" stroke="#06b6d4" stroke-width="0.5"/>
  <text x="636" y="341" text-anchor="middle" font-family="monospace" font-size="7" fill="#67e8f9">JWT</text>
  <rect x="664" y="330" width="60" height="16" rx="2" fill="#1e293b"/>
  <text x="694" y="341" text-anchor="middle" font-family="monospace" font-size="7" fill="#64748b">REGEX</text>
  <!-- JWT content -->
  <text x="612" y="364" font-family="monospace" font-size="7" fill="#475569">// PASTE JWT TOKEN</text>
  <rect x="612" y="370" width="256" height="36" rx="2" fill="#0d1b2a" stroke="#1e3a5f" stroke-width="0.5"/>
  <text x="622" y="382" font-family="monospace" font-size="6" fill="#06b6d4">eyJhbGciOiJIUzI1NiIsInR5cCI6IkpXVCI...</text>
  <text x="622" y="394" font-family="monospace" font-size="6" fill="#475569">{"sub":"1234","iat":1711234567}</text>
  <text x="612" y="422" font-family="monospace" font-size="7" fill="#475569">HEADER</text>
  <text x="660" y="422" font-family="monospace" font-size="7" fill="#e879f9">PAYLOAD</text>
  <text x="720" y="422" font-family="monospace" font-size="7" fill="#475569">SIGNATURE</text>
  <text x="612" y="440" font-family="monospace" font-size="7" fill="#10b981">✓ VALID SIGNATURE</text>
  <text x="612" y="455" font-family="monospace" font-size="7" fill="#64748b">ISSUED: 2025-03-23 | EXP: —</text>
  <text x="612" y="470" font-family="monospace" font-size="7" fill="#64748b">ALG: HS256</text>

  <!-- Row 3: CIPHER VAULT | CHROMA LAB | TEMPORAL NEXUS -->

  <!-- CIPHER VAULT widget -->
  <rect x="16" y="496" width="280" height="164" rx="4" fill="#0f172a" stroke="#818cf8" stroke-width="1" stroke-opacity="0.4"/>
  <rect x="16" y="496" width="280" height="22" rx="4" fill="#818cf8" fill-opacity="0.08"/>
  <line x1="16" y1="518" x2="296" y2="518" stroke="#818cf8" stroke-width="0.5" stroke-opacity="0.4"/>
  <text x="28" y="511" font-family="'Share Tech Mono', monospace" font-size="9" fill="#a5b4fc" letter-spacing="2" font-weight="bold">◈ CIPHER VAULT</text>
  <text x="28" y="534" font-family="monospace" font-size="7" fill="#475569">// CRYPTOGRAPHIC TOOLS</text>
  <rect x="28" y="542" width="256" height="18" rx="2" fill="#0d1b2a" stroke="#1e3a5f" stroke-width="0.5"/>
  <text x="38" y="554" font-family="monospace" font-size="7" fill="#64748b">Enter text to hash...</text>
  <rect x="28" y="566" width="60" height="16" rx="2" fill="#1e1b4b" stroke="#818cf8" stroke-width="0.5" stroke-opacity="0.5"/>
  <text x="58" y="577" text-anchor="middle" font-family="monospace" font-size="7" fill="#a5b4fc">SHA-256</text>
  <rect x="96" y="566" width="48" height="16" rx="2" fill="#1e293b" stroke="#334155" stroke-width="0.5"/>
  <text x="120" y="577" text-anchor="middle" font-family="monospace" font-size="7" fill="#64748b">MD5</text>
  <rect x="152" y="566" width="60" height="16" rx="2" fill="#1e293b" stroke="#334155" stroke-width="0.5"/>
  <text x="182" y="577" text-anchor="middle" font-family="monospace" font-size="7" fill="#64748b">BCRYPT</text>
  <text x="28" y="600" font-family="monospace" font-size="7" fill="#475569">UUID v4:</text>
  <text x="28" y="612" font-family="monospace" font-size="7" fill="#a5b4fc">f47ac10b-58cc-4372-a567-0e02b2c3d479</text>
  <text x="28" y="630" font-family="monospace" font-size="7" fill="#475569">Nanoid:</text>
  <text x="28" y="642" font-family="monospace" font-size="7" fill="#a5b4fc">V1StGXR8_Z5jdHi6B-myT</text>

  <!-- CHROMA LAB widget -->
  <rect x="308" y="456" width="280" height="164" rx="4" fill="#0f172a" stroke="#f59e0b" stroke-width="1" stroke-opacity="0.4"/>
  <rect x="308" y="456" width="280" height="22" rx="4" fill="#f59e0b" fill-opacity="0.08"/>
  <line x1="308" y1="478" x2="588" y2="478" stroke="#f59e0b" stroke-width="0.5" stroke-opacity="0.4"/>
  <text x="320" y="471" font-family="'Share Tech Mono', monospace" font-size="9" fill="#fbbf24" letter-spacing="2" font-weight="bold">◈ CHROMA LAB</text>
  <!-- Color swatches -->
  <rect x="320" y="486" width="24" height="24" rx="2" fill="#06b6d4"/>
  <rect x="350" y="486" width="24" height="24" rx="2" fill="#0891b2"/>
  <rect x="380" y="486" width="24" height="24" rx="2" fill="#0e7490"/>
  <rect x="410" y="486" width="24" height="24" rx="2" fill="#155e75"/>
  <rect x="440" y="486" width="24" height="24" rx="2" fill="#164e63"/>
  <rect x="320" y="516" width="24" height="24" rx="2" fill="#d946ef"/>
  <rect x="350" y="516" width="24" height="24" rx="2" fill="#c026d3"/>
  <rect x="380" y="516" width="24" height="24" rx="2" fill="#a21caf"/>
  <rect x="410" y="516" width="24" height="24" rx="2" fill="#86198f"/>
  <rect x="440" y="516" width="24" height="24" rx="2" fill="#701a75"/>
  <text x="320" y="560" font-family="monospace" font-size="7" fill="#475569">BASE HEX:</text>
  <text x="370" y="560" font-family="monospace" font-size="7" fill="#fbbf24">#06b6d4</text>
  <text x="320" y="574" font-family="monospace" font-size="7" fill="#475569">TAILWIND: cyan-500</text>
  <text x="320" y="592" font-family="monospace" font-size="7" fill="#475569">// GENERATE PALETTE</text>
  <rect x="320" y="598" width="80" height="16" rx="2" fill="#451a03" stroke="#f59e0b" stroke-width="0.5" stroke-opacity="0.5"/>
  <text x="360" y="609" text-anchor="middle" font-family="monospace" font-size="7" fill="#fbbf24">⊕ GENERATE</text>
  <rect x="408" y="598" width="70" height="16" rx="2" fill="#1e293b" stroke="#334155" stroke-width="0.5"/>
  <text x="443" y="609" text-anchor="middle" font-family="monospace" font-size="7" fill="#64748b">EXPORT CSS</text>

  <!-- TEMPORAL NEXUS widget -->
  <rect x="600" y="496" width="280" height="164" rx="4" fill="#0f172a" stroke="#06b6d4" stroke-width="1" stroke-opacity="0.4"/>
  <rect x="600" y="496" width="280" height="22" rx="4" fill="#06b6d4" fill-opacity="0.08"/>
  <line x1="600" y1="518" x2="880" y2="518" stroke="#06b6d4" stroke-width="0.5" stroke-opacity="0.4"/>
  <text x="612" y="511" font-family="'Share Tech Mono', monospace" font-size="9" fill="#67e8f9" letter-spacing="2" font-weight="bold">◈ TEMPORAL NEXUS</text>
  <!-- Time zones -->
  <text x="612" y="534" font-family="monospace" font-size="7" fill="#475569">// WORLD CLOCK</text>
  <line x1="612" y1="540" x2="868" y2="540" stroke="#1e293b" stroke-width="0.5"/>
  <!-- Zone entries -->
  <text x="612" y="555" font-family="monospace" font-size="8" fill="#67e8f9">UTC+0  London</text>
  <text x="780" y="555" font-family="'Share Tech Mono', monospace" font-size="8" fill="#e2e8f0" font-weight="bold">18:20</text>
  <line x1="612" y1="562" x2="868" y2="562" stroke="#1e293b" stroke-width="0.5"/>
  <text x="612" y="575" font-family="monospace" font-size="8" fill="#67e8f9">UTC-5  New York</text>
  <text x="780" y="575" font-family="'Share Tech Mono', monospace" font-size="8" fill="#e2e8f0" font-weight="bold">13:20</text>
  <line x1="612" y1="582" x2="868" y2="582" stroke="#1e293b" stroke-width="0.5"/>
  <text x="612" y="595" font-family="monospace" font-size="8" fill="#67e8f9">UTC+1  Oslo</text>
  <text x="780" y="595" font-family="'Share Tech Mono', monospace" font-size="8" fill="#e2e8f0" font-weight="bold">19:20</text>
  <line x1="612" y1="602" x2="868" y2="602" stroke="#1e293b" stroke-width="0.5"/>
  <text x="612" y="615" font-family="monospace" font-size="8" fill="#67e8f9">UTC+9  Tokyo</text>
  <text x="780" y="615" font-family="'Share Tech Mono', monospace" font-size="8" fill="#e2e8f0" font-weight="bold">03:20</text>
  <line x1="612" y1="622" x2="868" y2="622" stroke="#1e293b" stroke-width="0.5"/>
  <text x="612" y="635" font-family="monospace" font-size="8" fill="#67e8f9">UTC+8  Shanghai</text>
  <text x="780" y="635" font-family="'Share Tech Mono', monospace" font-size="8" fill="#e2e8f0" font-weight="bold">02:20</text>
  <line x1="612" y1="642" x2="868" y2="642" stroke="#1e293b" stroke-width="0.5"/>
  <text x="612" y="655" font-family="monospace" font-size="7" fill="#475569">// ADD TIMEZONE ⊕</text>

  <!-- ========== DOCK (right side) ========== -->
  <rect x="900" y="72" width="360" height="628" rx="4" fill="#0f172a" stroke="#1e293b" stroke-width="1" fill-opacity="0.0"/>

  <!-- MARKET WIDGET -->
  <rect x="900" y="72" width="368" height="200" rx="4" fill="#0f172a" stroke="#10b981" stroke-width="1" stroke-opacity="0.4"/>
  <rect x="900" y="72" width="368" height="22" rx="4" fill="#10b981" fill-opacity="0.06"/>
  <line x1="900" y1="94" x2="1268" y2="94" stroke="#10b981" stroke-width="0.5" stroke-opacity="0.4"/>
  <text x="912" y="87" font-family="'Share Tech Mono', monospace" font-size="9" fill="#34d399" letter-spacing="2" font-weight="bold">◈ MARKET WIDGET</text>
  <!-- Sparklines / tickers -->
  <text x="912" y="112" font-family="monospace" font-size="8" fill="#34d399">BTC/USD</text>
  <text x="1100" y="112" font-family="'Share Tech Mono', monospace" font-size="10" fill="#34d399" font-weight="bold">$67,420.50</text>
  <text x="1200" y="112" font-family="monospace" font-size="8" fill="#34d399">+2.34%</text>
  <polyline points="912,140 930,132 948,135 966,128 984,124 1002,130 1020,122 1038,118 1056,126 1074,120 1092,116 1110,122 1128,115 1146,110 1164,118" fill="none" stroke="#10b981" stroke-width="1.5" stroke-opacity="0.8"/>
  <polyline points="912,140 930,132 948,135 966,128 984,124 1002,130 1020,122 1038,118 1056,126 1074,120 1092,116 1110,122 1128,115 1146,110 1164,118" fill="url(#cyan-glow)" opacity="0.2"/>
  <line x1="912" y1="152" x2="1260" y2="152" stroke="#1e293b" stroke-width="0.5"/>
  <text x="912" y="168" font-family="monospace" font-size="8" fill="#67e8f9">ETH/USD</text>
  <text x="1100" y="168" font-family="'Share Tech Mono', monospace" font-size="10" fill="#67e8f9" font-weight="bold">$3,840.20</text>
  <text x="1200" y="168" font-family="monospace" font-size="8" fill="#34d399">+1.12%</text>
  <polyline points="912,192 930,196 948,190 966,198 984,194 1002,192 1020,196 1038,188 1056,192 1074,186 1092,190 1110,184 1128,188 1146,182 1164,186" fill="none" stroke="#06b6d4" stroke-width="1.5" stroke-opacity="0.8"/>
  <line x1="912" y1="205" x2="1260" y2="205" stroke="#1e293b" stroke-width="0.5"/>
  <text x="912" y="221" font-family="monospace" font-size="8" fill="#e879f9">SOL/USD</text>
  <text x="1100" y="221" font-family="'Share Tech Mono', monospace" font-size="10" fill="#e879f9" font-weight="bold">$145.33</text>
  <text x="1200" y="221" font-family="monospace" font-size="8" fill="#ef4444">-0.87%</text>
  <polyline points="912,245 930,242 948,248 966,244 984,250 1002,246 1020,252 1038,248 1056,252 1074,256 1092,252 1110,258 1128,254 1146,260 1164,256" fill="none" stroke="#d946ef" stroke-width="1.5" stroke-opacity="0.8"/>

  <!-- VALUTA EXCHANGE -->
  <rect x="900" y="284" width="368" height="160" rx="4" fill="#0f172a" stroke="#f59e0b" stroke-width="1" stroke-opacity="0.4"/>
  <rect x="900" y="284" width="368" height="22" rx="4" fill="#f59e0b" fill-opacity="0.06"/>
  <line x1="900" y1="306" x2="1268" y2="306" stroke="#f59e0b" stroke-width="0.5" stroke-opacity="0.4"/>
  <text x="912" y="299" font-family="'Share Tech Mono', monospace" font-size="9" fill="#fbbf24" letter-spacing="2" font-weight="bold">◈ VALUTA EXCHANGE</text>
  <text x="912" y="322" font-family="monospace" font-size="7" fill="#475569">// CURRENCY CONVERTER</text>
  <!-- From/To -->
  <text x="912" y="342" font-family="monospace" font-size="8" fill="#64748b">FROM</text>
  <rect x="912" y="348" width="100" height="20" rx="2" fill="#0d1b2a" stroke="#1e3a5f" stroke-width="0.5"/>
  <text x="962" y="361" text-anchor="middle" font-family="'Share Tech Mono', monospace" font-size="9" fill="#fbbf24">1,000 USD</text>
  <text x="1030" y="361" font-family="monospace" font-size="12" fill="#475569">→</text>
  <text x="1060" y="342" font-family="monospace" font-size="8" fill="#64748b">TO</text>
  <rect x="1060" y="348" width="100" height="20" rx="2" fill="#0d1b2a" stroke="#1e3a5f" stroke-width="0.5"/>
  <text x="1110" y="361" text-anchor="middle" font-family="'Share Tech Mono', monospace" font-size="9" fill="#34d399">858.50 EUR</text>
  <!-- Rate rows -->
  <text x="912" y="388" font-family="monospace" font-size="7" fill="#64748b">USD → EUR: 0.8585</text>
  <text x="1060" y="388" font-family="monospace" font-size="7" fill="#64748b">USD → GBP: 0.7901</text>
  <text x="912" y="404" font-family="monospace" font-size="7" fill="#64748b">USD → JPY: 151.22</text>
  <text x="1060" y="404" font-family="monospace" font-size="7" fill="#64748b">USD → BTC: 0.00001</text>
  <text x="912" y="424" font-family="monospace" font-size="7" fill="#475569">UPDATED: 2025-03-23 18:20 UTC | 12+ CURRENCIES</text>

  <!-- WEATHER STATION -->
  <rect x="900" y="456" width="368" height="120" rx="4" fill="#0f172a" stroke="#06b6d4" stroke-width="1" stroke-opacity="0.4"/>
  <rect x="900" y="456" width="368" height="22" rx="4" fill="#06b6d4" fill-opacity="0.06"/>
  <line x1="900" y1="478" x2="1268" y2="478" stroke="#06b6d4" stroke-width="0.5" stroke-opacity="0.4"/>
  <text x="912" y="471" font-family="'Share Tech Mono', monospace" font-size="9" fill="#67e8f9" letter-spacing="2" font-weight="bold">◈ WEATHER STATION</text>
  <!-- Weather content -->
  <text x="912" y="496" font-family="monospace" font-size="24" fill="#fbbf24">⛅</text>
  <text x="950" y="498" font-family="'Share Tech Mono', monospace" font-size="22" fill="#e2e8f0" font-weight="bold">12°C</text>
  <text x="1010" y="490" font-family="monospace" font-size="8" fill="#64748b">Oslo, Norway</text>
  <text x="1010" y="504" font-family="monospace" font-size="7" fill="#64748b">Partly Cloudy</text>
  <text x="1010" y="518" font-family="monospace" font-size="7" fill="#64748b">Humidity: 65% | Wind: 12 km/h</text>
  <!-- 5-day forecast -->
  <text x="912" y="540" font-family="monospace" font-size="7" fill="#475569">MON</text>
  <text x="912" y="552" font-family="monospace" font-size="10" fill="#94a3b8">☁</text>
  <text x="912" y="566" font-family="monospace" font-size="7" fill="#64748b">10°</text>
  <text x="950" y="540" font-family="monospace" font-size="7" fill="#475569">TUE</text>
  <text x="950" y="552" font-family="monospace" font-size="10" fill="#fbbf24">☀</text>
  <text x="950" y="566" font-family="monospace" font-size="7" fill="#64748b">15°</text>
  <text x="988" y="540" font-family="monospace" font-size="7" fill="#475569">WED</text>
  <text x="988" y="552" font-family="monospace" font-size="10" fill="#94a3b8">🌧</text>
  <text x="988" y="566" font-family="monospace" font-size="7" fill="#64748b">8°</text>
  <text x="1026" y="540" font-family="monospace" font-size="7" fill="#475569">THU</text>
  <text x="1026" y="552" font-family="monospace" font-size="10" fill="#fbbf24">⛅</text>
  <text x="1026" y="566" font-family="monospace" font-size="7" fill="#64748b">13°</text>
  <text x="1064" y="540" font-family="monospace" font-size="7" fill="#475569">FRI</text>
  <text x="1064" y="552" font-family="monospace" font-size="10" fill="#fbbf24">☀</text>
  <text x="1064" y="566" font-family="monospace" font-size="7" fill="#64748b">17°</text>

  <!-- QUANTUM CALC mini -->
  <rect x="900" y="588" width="168" height="112" rx="4" fill="#0f172a" stroke="#818cf8" stroke-width="1" stroke-opacity="0.4"/>
  <rect x="900" y="588" width="168" height="22" rx="4" fill="#818cf8" fill-opacity="0.06"/>
  <line x1="900" y1="610" x2="1068" y2="610" stroke="#818cf8" stroke-width="0.5" stroke-opacity="0.4"/>
  <text x="912" y="603" font-family="'Share Tech Mono', monospace" font-size="8" fill="#a5b4fc" letter-spacing="2" font-weight="bold">◈ QUANTUM CALC</text>
  <rect x="912" y="616" width="144" height="22" rx="2" fill="#0d1b2a" stroke="#1e3a5f" stroke-width="0.5"/>
  <text x="1050" y="631" text-anchor="end" font-family="'Share Tech Mono', monospace" font-size="12" fill="#a5b4fc">2025 × π</text>
  <text x="1050" y="648" text-anchor="end" font-family="'Share Tech Mono', monospace" font-size="9" fill="#e2e8f0">= 6,361.73</text>
  <!-- calc buttons row -->
  <rect x="912" y="654" width="26" height="20" rx="2" fill="#1e293b" stroke="#334155" stroke-width="0.5"/>
  <text x="925" y="667" text-anchor="middle" font-family="monospace" font-size="8" fill="#94a3b8">7</text>
  <rect x="942" y="654" width="26" height="20" rx="2" fill="#1e293b" stroke="#334155" stroke-width="0.5"/>
  <text x="955" y="667" text-anchor="middle" font-family="monospace" font-size="8" fill="#94a3b8">8</text>
  <rect x="972" y="654" width="26" height="20" rx="2" fill="#1e293b" stroke="#334155" stroke-width="0.5"/>
  <text x="985" y="667" text-anchor="middle" font-family="monospace" font-size="8" fill="#94a3b8">9</text>
  <rect x="1002" y="654" width="26" height="20" rx="2" fill="#0c4a6e" stroke="#06b6d4" stroke-width="0.5"/>
  <text x="1015" y="667" text-anchor="middle" font-family="monospace" font-size="8" fill="#67e8f9">÷</text>
  <rect x="1032" y="654" width="26" height="20" rx="2" fill="#4a044e" stroke="#d946ef" stroke-width="0.5"/>
  <text x="1045" y="667" text-anchor="middle" font-family="monospace" font-size="8" fill="#e879f9">C</text>

  <!-- CHAIN PULSE mini -->
  <rect x="1080" y="588" width="188" height="112" rx="4" fill="#0f172a" stroke="#10b981" stroke-width="1" stroke-opacity="0.4"/>
  <rect x="1080" y="588" width="188" height="22" rx="4" fill="#10b981" fill-opacity="0.06"/>
  <line x1="1080" y1="610" x2="1268" y2="610" stroke="#10b981" stroke-width="0.5" stroke-opacity="0.4"/>
  <text x="1092" y="603" font-family="'Share Tech Mono', monospace" font-size="8" fill="#34d399" letter-spacing="2" font-weight="bold">◈ CHAIN PULSE</text>
  <text x="1092" y="625" font-family="monospace" font-size="7" fill="#475569">ETHEREUM TPS</text>
  <text x="1240" y="625" text-anchor="end" font-family="'Share Tech Mono', monospace" font-size="10" fill="#34d399" font-weight="bold">14.2</text>
  <polyline points="1092,650 1106,645 1120,648 1134,642 1148,646 1162,640 1176,644 1190,638 1204,642 1218,636 1232,640 1246,634" fill="none" stroke="#10b981" stroke-width="1.5"/>
  <text x="1092" y="670" font-family="monospace" font-size="7" fill="#475569">SOLANA TPS</text>
  <text x="1240" y="670" text-anchor="end" font-family="'Share Tech Mono', monospace" font-size="10" fill="#fbbf24" font-weight="bold">2,841</text>
  <text x="1092" y="688" font-family="monospace" font-size="7" fill="#475569">BITCOIN TPS</text>
  <text x="1240" y="688" text-anchor="end" font-family="'Share Tech Mono', monospace" font-size="10" fill="#67e8f9" font-weight="bold">5.0</text>

  <!-- ========== STATUS BAR ========== -->
  <rect x="0" y="770" width="1280" height="30" fill="#0f172a" fill-opacity="0.95"/>
  <line x1="0" y1="770" x2="1280" y2="770" stroke="#1e293b" stroke-width="1"/>
  <text x="16" y="788" font-family="monospace" font-size="8" fill="#475569">// OMNI-GRID v2.0.0-alpha</text>
  <circle cx="200" cy="784" r="4" fill="#10b981"/>
  <text x="210" y="788" font-family="monospace" font-size="8" fill="#34d399">ONLINE</text>
  <text x="260" y="788" font-family="monospace" font-size="8" fill="#475569">LOCAL-FIRST</text>
  <text x="360" y="788" font-family="monospace" font-size="8" fill="#475569">39 WIDGETS AVAILABLE</text>
  <text x="500" y="788" font-family="monospace" font-size="8" fill="#475569">THEME: MIDNIGHT CYBERPUNK</text>
  <text x="700" y="788" font-family="monospace" font-size="8" fill="#475569">GEMINI AI: CONNECTED</text>
  <text x="900" y="788" font-family="monospace" font-size="8" fill="#334155">Press Ctrl+K for Command Palette | Ctrl+, for Settings</text>

  <!-- Scanlines overlay (subtle) -->
  <rect width="1280" height="800" fill="transparent" opacity="0.03">
    <animate attributeName="opacity" values="0.03;0.06;0.03" dur="4s" repeatCount="indefinite"/>
  </rect>
</svg>
